<?xml version="1.0" ?><svg height="100px" id="credit_ATM" style="enable-background:new 0 0 100 100;" version="1.1" viewBox="0 0 100 100" width="100px" xml:space="preserve" xmlns="http://www.w3.org/2000/svg" xmlns:xlink="http://www.w3.org/1999/xlink"><polygon points="54.256,50.48 54.256,85.783 56.751,85.783 56.751,50.48 "/><polygon points="60.773,64.904 60.773,85.783 63.269,85.783 63.269,64.904 "/><path d="M22.635,21.973v71.496c0,0.651,0.587,1.18,1.311,1.18h52.418c0.724,0,1.311-0.529,1.311-1.18V21.973  c0-0.651-0.587-1.18-1.311-1.18H23.946C23.222,20.793,22.635,21.321,22.635,21.973z M25.258,23.153h7.221v69.136h-7.221V23.153z   M35.101,23.153h7.143v69.136h-7.143V23.153z M75.052,92.289H44.866V23.153h30.186C75.052,23.153,75.052,92.289,75.052,92.289z"/><path d="M95.155,7.568h-90c-0.828,0-1.5,0.672-1.5,1.5V30.5c0,0.828,0.672,1.5,1.5,1.5h10v-3h-8.5V10.568h87V29h-8.5v3h10  c0.828,0,1.5-0.672,1.5-1.5V9.068C96.655,8.24,95.984,7.568,95.155,7.568z"/></svg>