<?xml version="1.0" ?><svg enable-background="new 0 0 52 52" id="Layer_1" version="1.1" viewBox="0 0 52 52" xml:space="preserve" xmlns="http://www.w3.org/2000/svg" xmlns:xlink="http://www.w3.org/1999/xlink"><path d="M26.0009766,5C12.7666016,5,2,15.9643555,2,29.440918v6.6054688h2.9978638v5.0936279h2c3.3099976,0,6-2.6900024,6-6  v-0.1900024c0-3.3099976-2.6900024-6-6-6h-2v5.0963745H4V29.440918C4,17.0668945,13.8691406,7,26.0009766,7  C38.1308594,7,48,17.0668945,48,29.440918v4.6054688h-1.0021362v-5.0963745h-2c-3.3099976,0-6,2.6900024-6,6v0.1900024  c0,3.3099976,2.6900024,6,6,6h2v-5.0936279H48v6.1342773C48,43.921875,46.3115234,45,44.7470703,45h-7.9405518  c0.1173096-0.3256836,0.1913452-0.6728516,0.1913452-1.039978c0-2.2300415-1.789978-3.0400391-3-3.0400391  c-1.6499634,0-3,1.3699951-3,3.0400391c0,1.5925903,1.2172852,2.8828125,2.7492065,3.0142822V47h11  C47.6435547,47,50,44.8378906,50,42.1806641v-6.1342773v-1V29.440918C50,15.9643555,39.234375,5,26.0009766,5z"/></svg>