<svg id="Layer_1" enable-background="new 0 0 512.367 512.367" height="512" viewBox="0 0 512.367 512.367" width="512" xmlns="http://www.w3.org/2000/svg"><path d="m29.106 335.559c8.518-2.351 13.518-11.161 11.168-19.68-43.54-157.789 91.714-308.01 253.589-280.599 8.714 1.472 16.972-4.391 18.447-13.104 1.476-8.712-4.392-16.971-13.104-18.446-185.496-31.419-339.386 140.884-289.78 320.661 2.352 8.521 11.163 13.517 19.68 11.168z"/><path d="m508.63 213.163c-1.476-8.712-9.736-14.586-18.447-13.104-8.712 1.476-14.58 9.734-13.104 18.446 27.436 162.023-123.001 297.067-280.599 253.579-8.517-2.348-17.329 2.649-19.68 11.168-2.35 8.519 2.65 17.329 11.168 19.68 180.46 49.792 351.966-104.907 320.662-289.769z"/><path d="m424.225 176.135c48.523 0 88-39.477 88-88s-39.477-88-88-88-88 39.477-88 88 39.476 88 88 88zm0-144c30.878 0 56 25.121 56 56s-25.122 56-56 56-56-25.121-56-56 25.121-56 56-56z"/><path d="m88.225 352.135c-39.701 0-72 32.299-72 72s32.299 72 72 72 72-32.299 72-72-32.299-72-72-72zm0 112c-22.056 0-40-17.944-40-40s17.944-40 40-40 40 17.944 40 40-17.944 40-40 40z"/><path d="m301.812 147.986-85.587 73.36v-61.212c0-8.837-7.164-16-16-16s-16 7.163-16 16v192c0 8.837 7.164 16 16 16s16-7.163 16-16v-61.212l85.587 73.36c3.018 2.586 6.72 3.852 10.405 3.852 14.733 0 21.744-18.442 10.42-28.148l-97.827-83.852 97.827-83.852c6.709-5.751 7.486-15.852 1.735-22.562-5.75-6.705-15.85-7.483-22.56-1.734z"/><path d="m312.225 240.135h-32c-8.836 0-16 7.163-16 16s7.164 16 16 16h32c8.836 0 16-7.163 16-16s-7.164-16-16-16z"/></svg>