<?xml version="1.0" ?><svg fill="none" height="24" viewBox="0 0 24 24" width="24" xmlns="http://www.w3.org/2000/svg"><path clip-rule="evenodd" d="M3.29289 3.29289C3.68342 2.90237 4.31658 2.90237 4.70711 3.29289L12.7069 11.2926V11.2926L20.7071 19.2929C21.0976 19.6834 21.0976 20.3166 20.7071 20.7071C20.3166 21.0976 19.6834 21.0976 19.2929 20.7071L11.6014 13.0156C10.2822 13.1195 9.10769 13.7348 8.27387 14.6659C7.90543 15.0773 7.27322 15.1121 6.8618 14.7437C6.45038 14.3752 6.41553 13.743 6.78398 13.3316C7.61346 12.4054 8.68764 11.7006 9.90492 11.3191L8.35444 9.76866C7.30748 10.2331 6.36481 10.892 5.57267 11.7C5.18604 12.0944 4.55291 12.1007 4.15852 11.7141C3.76414 11.3275 3.75784 10.6943 4.14447 10.3C4.93557 9.49297 5.85046 8.80708 6.85887 8.27309L5.38945 6.80366C4.88992 7.09928 4.41178 7.42745 3.95796 7.78527C3.52427 8.12722 2.89548 8.05285 2.55353 7.61916C2.21158 7.18547 2.28595 6.55668 2.71965 6.21473C3.1098 5.90711 3.51565 5.61841 3.93582 5.35004L3.29289 4.70711C2.90237 4.31658 2.90237 3.68342 3.29289 3.29289ZM12 5C11.3685 5 10.748 5.04496 10.1416 5.1317C9.59488 5.2099 9.08828 4.8301 9.01008 4.28338C8.93187 3.73666 9.31168 3.23006 9.8584 3.15185C10.5584 3.05173 11.2734 3 12 3C15.5026 3 18.7273 4.20176 21.2804 6.21473C21.714 6.55668 21.7884 7.18547 21.4465 7.61916C21.1045 8.05285 20.4757 8.12722 20.042 7.78527C17.8292 6.04052 15.0375 5 12 5ZM12.0049 7.95058C12.0595 7.40099 12.5492 6.9997 13.0988 7.05427C15.7376 7.31627 18.1013 8.51049 19.8555 10.3C20.2422 10.6943 20.2359 11.3275 19.8415 11.7141C19.4471 12.1007 18.814 12.0944 18.4273 11.7C16.9897 10.2335 15.0569 9.25851 12.9012 9.04448C12.3516 8.98992 11.9503 8.50016 12.0049 7.95058ZM12 17C11.4477 17 11 17.4477 11 18C11 18.5523 11.4477 19 12 19C12.5523 19 13 18.5523 13 18C13 17.4477 12.5523 17 12 17ZM9 18C9 16.3431 10.3431 15 12 15C13.6569 15 15 16.3431 15 18C15 19.6569 13.6569 21 12 21C10.3431 21 9 19.6569 9 18Z" fill="black" fill-rule="evenodd"/></svg>