<?xml version="1.0" ?><svg data-name="Layer 1" height="200" id="Layer_1" viewBox="0 0 200 200" width="200" xmlns="http://www.w3.org/2000/svg"><title/><path d="M75,15H35A20.06,20.06,0,0,0,15,35V75A20.06,20.06,0,0,0,35,95H75A20.06,20.06,0,0,0,95,75V35A20.06,20.06,0,0,0,75,15Zm0,60H35V35H75Zm0,30H35a20.06,20.06,0,0,0-20,20v40a20.06,20.06,0,0,0,20,20H75a20.06,20.06,0,0,0,20-20V125A20.06,20.06,0,0,0,75,105Zm0,60H35V125H75ZM165,15H125a20.06,20.06,0,0,0-20,20V75a20.06,20.06,0,0,0,20,20h40a20.06,20.06,0,0,0,20-20V35A20.06,20.06,0,0,0,165,15Zm0,60H125V35h40ZM50,65H60a5.38,5.38,0,0,0,5-5V50a5.38,5.38,0,0,0-5-5H50a5.38,5.38,0,0,0-5,5V60A5.38,5.38,0,0,0,50,65Zm0,90H60a5.38,5.38,0,0,0,5-5V140a5.38,5.38,0,0,0-5-5H50a5.38,5.38,0,0,0-5,5v10A5.38,5.38,0,0,0,50,155Zm90-90h10a5.38,5.38,0,0,0,5-5V50a5.38,5.38,0,0,0-5-5H140a5.38,5.38,0,0,0-5,5V60A5.38,5.38,0,0,0,140,65Zm-30,80h10a5.38,5.38,0,0,0,5-5V130a5.38,5.38,0,0,1,5-5h10a5.38,5.38,0,0,0,5-5V110a5.38,5.38,0,0,0-5-5H110a5.38,5.38,0,0,0-5,5v30a5.38,5.38,0,0,0,5,5Zm70-40H170a5.38,5.38,0,0,0-5,5v30a5.38,5.38,0,0,0,5,5h10a5.38,5.38,0,0,0,5-5V110A5.38,5.38,0,0,0,180,105Zm-60,60H110a5.38,5.38,0,0,0-5,5v10a5.38,5.38,0,0,0,5,5h10a5.38,5.38,0,0,0,5-5V170A5.38,5.38,0,0,0,120,165Zm60,0H170a5.38,5.38,0,0,1-5-5V150a5.38,5.38,0,0,0-5-5H130a5.38,5.38,0,0,0-5,5v10a5.38,5.38,0,0,0,5,5h10a5.38,5.38,0,0,1,5,5v10a5.38,5.38,0,0,0,5,5h30a5.38,5.38,0,0,0,5-5V170A5.38,5.38,0,0,0,180,165Z"/></svg>