<?xml version="1.0" ?><svg data-name="Layer 1" id="Layer_1" viewBox="0 0 512 512" xmlns="http://www.w3.org/2000/svg"><title/><path d="M114.87,229.43a5.69,5.69,0,0,0,0-11.38,38,38,0,1,1,.36-76.06h.12a5.54,5.54,0,0,0,5.11-2.83,5.71,5.71,0,0,0-.07-5.84,58.75,58.75,0,0,1,50.16-89.83c32,0,58.43,26.08,58.95,58.13a5.68,5.68,0,0,0,9.14,4.43,37.57,37.57,0,0,1,22.92-7.88,38.1,38.1,0,0,1,38.06,38.06,37.64,37.64,0,0,1-3.93,16.51,5.74,5.74,0,0,0,.95,6.34,5.68,5.68,0,0,0,6.24,1.44c19.9-7.78,40.5,7.73,40.5,27.73a29.84,29.84,0,0,1-29.8,29.8,5.69,5.69,0,0,0,0,11.38,41.18,41.18,0,1,0-3.89-82.18,47.71,47.71,0,0,0,1.31-11,49.49,49.49,0,0,0-49.44-49.44,48.24,48.24,0,0,0-21.5,5c-5.22-33.69-34.6-59.72-69.51-59.72a70.51,70.51,0,0,0-70.43,70.43,69.25,69.25,0,0,0,6.31,28.72,49.45,49.45,0,0,0,8.44,98.17Z"/><path d="M176.56,156a5.69,5.69,0,0,0-5.69,5.69v79.88L157.33,228a5.69,5.69,0,1,0-8,8l23.24,23.24a5.69,5.69,0,0,0,8.05,0L203.82,236a5.69,5.69,0,1,0-8-8l-13.54,13.54V161.65A5.68,5.68,0,0,0,176.56,156Z"/><path d="M243.63,261a5.69,5.69,0,0,0,5.69-5.69V175.38l13.55,13.54a5.62,5.62,0,0,0,4,1.67,5.68,5.68,0,0,0,4-9.71l-23.24-23.25a5.69,5.69,0,0,0-8,0l-23.25,23.25a5.69,5.69,0,0,0,8,8l13.53-13.53v79.87A5.69,5.69,0,0,0,243.63,261Z"/><path d="M474.8,449.67,456.57,388a5.68,5.68,0,0,0-2.83-3.44,5.78,5.78,0,0,0-4.46-.33l-21.41,7.29-10-32.42a90.27,90.27,0,0,0-59.66-59.64l-65.32-20.19a99.08,99.08,0,0,0-57.24-.67c-26.33,7.71-59.75,22.06-73.2,46.56l-93.31-22.7a26,26,0,0,0-16.94,48.87l135.4,61.92a43.76,43.76,0,0,0,23.7,3.63l120.71-15,6.81,18.34a5.38,5.38,0,0,0,1,1.3l-30,10.22a5.68,5.68,0,0,0-3.62,7l11,37.14a5.67,5.67,0,0,0,5.45,4.09,6.08,6.08,0,0,0,1.61-.23,5.69,5.69,0,0,0,3.84-7.07l-9.41-31.91,128.7-43.82,16.56,56a5.68,5.68,0,1,0,10.9-3.23ZM349.46,416.2l-8.39-22.57a5.74,5.74,0,0,0-6-3.67L209.86,405.55a32.39,32.39,0,0,1-17.56-2.7L56.9,340.94a14.6,14.6,0,0,1,9.52-27.47L159,336a20.21,20.21,0,0,0,22.68,20.73L305.38,342a5.69,5.69,0,0,0,5-6.33,5.76,5.76,0,0,0-6.31-5l-123.69,14.7a9.06,9.06,0,0,1-9.25-12.83c8.25-17.44,32.3-32.75,67.71-43.12a87.46,87.46,0,0,1,50.7.63l65.31,20.18A78.91,78.91,0,0,1,407,362.41l10.12,32.73-67.34,22.93A5.46,5.46,0,0,0,349.46,416.2Z"/></svg>